<svg width="139" height="139" viewBox="0 0 139 139" fill="none" xmlns="http://www.w3.org/2000/svg">
<circle cx="69.5" cy="69.5" r="69.5" fill="#D9D9D9"/>
<path d="M86.5 62.5V65C86.4951 69.2046 84.9765 73.2669 82.222 76.4437C79.4676 79.6205 75.6615 81.6993 71.5 82.3V90H79V95H59V90H66.5V82.3C62.3385 81.6993 58.5324 79.6205 55.778 76.4437C53.0235 73.2669 51.5049 69.2046 51.5 65V62.5H56.5V65C56.5 68.3152 57.817 71.4946 60.1612 73.8388C62.5054 76.183 65.6848 77.5 69 77.5C72.3152 77.5 75.4946 76.183 77.8388 73.8388C80.183 71.4946 81.5 68.3152 81.5 65V62.5H86.5ZM69 72.5C70.9891 72.5 72.8968 71.7098 74.3033 70.3033C75.7098 68.8968 76.5 66.9891 76.5 65V52.5C76.5 50.5109 75.7098 48.6032 74.3033 47.1967C72.8968 45.7902 70.9891 45 69 45C67.0109 45 65.1032 45.7902 63.6967 47.1967C62.2902 48.6032 61.5 50.5109 61.5 52.5V65C61.5 66.9891 62.2902 68.8968 63.6967 70.3033C65.1032 71.7098 67.0109 72.5 69 72.5Z" fill="black"/>
</svg>
