<svg width="139" height="139" viewBox="0 0 139 139" fill="none" xmlns="http://www.w3.org/2000/svg">
<circle cx="69.5" cy="69.5" r="69.5" fill="#D9D9D9"/>
<path d="M66.975 45.625C66.325 45.625 65.675 45.775 65.05 46L46.65 53.625C45.4269 54.1259 44.4527 55.0919 43.9417 56.3108C43.4307 57.5297 43.4247 58.9017 43.925 60.125L56.325 90C56.6912 90.9061 57.315 91.6851 58.1193 92.2405C58.9235 92.7959 59.8728 93.1034 60.85 93.125C61.5 93.125 62.175 93.05 62.825 92.75L81.25 85.125C82.1392 84.7476 82.9016 84.1231 83.4467 83.3254C83.9917 82.5278 84.2965 81.5906 84.325 80.625C84.35 80 84.225 79.275 84 78.625L71.5 48.75C71.1466 47.835 70.526 47.0477 69.719 46.4903C68.9119 45.9329 67.9557 45.6314 66.975 45.625ZM75.675 45.625L84.3 66.5V50.625C84.3 49.2989 83.7732 48.0271 82.8355 47.0895C81.8978 46.1518 80.626 45.625 79.3 45.625M89.325 49.475V72.05L95.4 57.4C95.649 56.7944 95.7761 56.1456 95.7739 55.4908C95.7716 54.836 95.6402 54.1881 95.387 53.5842C95.1338 52.9803 94.764 52.4324 94.2986 51.9718C93.8332 51.5111 93.2814 51.1469 92.6749 50.9M66.975 50.55L79.425 80.6L60.95 88.25L48.5 58.225" fill="black"/>
</svg>
