<svg width="139" height="139" viewBox="0 0 139 139" fill="none" xmlns="http://www.w3.org/2000/svg">
<circle cx="69.5" cy="69.5" r="69.5" fill="#D9D9D9"/>
<path d="M62.125 95L61.125 87C60.5833 86.7917 60.0725 86.5417 59.5925 86.25C59.1125 85.9583 58.6442 85.6458 58.1875 85.3125L50.75 88.4375L43.875 76.5625L50.3125 71.6875C50.2708 71.3958 50.25 71.1142 50.25 70.8425V69.1575C50.25 68.8858 50.2708 68.6042 50.3125 68.3125L43.875 63.4375L50.75 51.5625L58.1875 54.6875C58.6458 54.3542 59.125 54.0417 59.625 53.75C60.125 53.4583 60.625 53.2083 61.125 53L62.125 45H75.875L76.875 53C77.4167 53.2083 77.9275 53.4583 78.4075 53.75C78.8875 54.0417 79.3558 54.3542 79.8125 54.6875L87.25 51.5625L94.125 63.4375L87.6875 68.3125C87.7292 68.6042 87.75 68.8858 87.75 69.1575V70.8425C87.75 71.1142 87.7083 71.3958 87.625 71.6875L94.0625 76.5625L87.1875 88.4375L79.8125 85.3125C79.3542 85.6458 78.875 85.9583 78.375 86.25C77.875 86.5417 77.375 86.7917 76.875 87L75.875 95H62.125ZM69.125 78.75C71.5417 78.75 73.6042 77.8958 75.3125 76.1875C77.0208 74.4792 77.875 72.4167 77.875 70C77.875 67.5833 77.0208 65.5208 75.3125 63.8125C73.6042 62.1042 71.5417 61.25 69.125 61.25C66.6667 61.25 64.5933 62.1042 62.905 63.8125C61.2167 65.5208 60.3733 67.5833 60.375 70C60.375 72.4167 61.2183 74.4792 62.905 76.1875C64.5917 77.8958 66.665 78.75 69.125 78.75ZM69.125 73.75C68.0833 73.75 67.1975 73.385 66.4675 72.655C65.7375 71.925 65.3733 71.04 65.375 70C65.375 68.9583 65.74 68.0725 66.47 67.3425C67.2 66.6125 68.085 66.2483 69.125 66.25C70.1667 66.25 71.0525 66.615 71.7825 67.345C72.5125 68.075 72.8767 68.96 72.875 70C72.875 71.0417 72.51 71.9275 71.78 72.6575C71.05 73.3875 70.165 73.7517 69.125 73.75ZM66.5 90H71.4375L72.3125 83.375C73.6042 83.0417 74.8025 82.5517 75.9075 81.905C77.0125 81.2583 78.0225 80.4775 78.9375 79.5625L85.125 82.125L87.5625 77.875L82.1875 73.8125C82.3958 73.2292 82.5417 72.615 82.625 71.97C82.7083 71.325 82.75 70.6683 82.75 70C82.75 69.3333 82.7083 68.6775 82.625 68.0325C82.5417 67.3875 82.3958 66.7725 82.1875 66.1875L87.5625 62.125L85.125 57.875L78.9375 60.5C78.0208 59.5417 77.0108 58.74 75.9075 58.095C74.8042 57.45 73.6058 56.96 72.3125 56.625L71.5 50H66.5625L65.6875 56.625C64.3958 56.9583 63.1983 57.4483 62.095 58.095C60.9917 58.7417 59.9808 59.5225 59.0625 60.4375L52.875 57.875L50.4375 62.125L55.8125 66.125C55.6042 66.75 55.4583 67.375 55.375 68C55.2917 68.625 55.25 69.2917 55.25 70C55.25 70.6667 55.2917 71.3125 55.375 71.9375C55.4583 72.5625 55.6042 73.1875 55.8125 73.8125L50.4375 77.875L52.875 82.125L59.0625 79.5C59.9792 80.4583 60.99 81.2608 62.095 81.9075C63.2 82.5542 64.3975 83.0433 65.6875 83.375L66.5 90Z" fill="black"/>
</svg>
